<mxfile host="app.diagrams.net" modified="2023-10-31T20:33:42.367Z" agent="Mozilla/5.0 (Windows NT 10.0; Win64; x64) AppleWebKit/537.36 (KHTML, like Gecko) Chrome/117.0.0.0 Safari/537.36" etag="94uNGYDhz6Q8u0wFugwo" version="22.0.8" type="device">
  <diagram name="PÃ¡gina-1" id="DTinN4Y7Yt76tl2UFUI_">
    <mxGraphModel dx="1290" dy="566" grid="1" gridSize="10" guides="1" tooltips="1" connect="1" arrows="1" fold="1" page="1" pageScale="1" pageWidth="827" pageHeight="1169" math="0" shadow="0">
      <root>
        <mxCell id="0" />
        <mxCell id="1" parent="0" />
        <mxCell id="vSFISmRLjkH2FBeVN5JN-68" value="" style="rounded=0;whiteSpace=wrap;html=1;" parent="1" vertex="1">
          <mxGeometry x="335" y="170" width="325" height="330" as="geometry" />
        </mxCell>
        <mxCell id="vSFISmRLjkH2FBeVN5JN-3" value="" style="rounded=0;whiteSpace=wrap;html=1;" parent="1" vertex="1">
          <mxGeometry x="40" y="50" width="270" height="620" as="geometry" />
        </mxCell>
        <mxCell id="vSFISmRLjkH2FBeVN5JN-42" style="edgeStyle=orthogonalEdgeStyle;rounded=0;orthogonalLoop=1;jettySize=auto;html=1;strokeColor=#0800FF;exitX=1;exitY=0.5;exitDx=0;exitDy=0;" parent="1" source="vSFISmRLjkH2FBeVN5JN-1" target="vSFISmRLjkH2FBeVN5JN-18" edge="1">
          <mxGeometry relative="1" as="geometry">
            <Array as="points">
              <mxPoint x="320" y="230" />
              <mxPoint x="320" y="260" />
              <mxPoint x="445" y="260" />
            </Array>
          </mxGeometry>
        </mxCell>
        <mxCell id="vSFISmRLjkH2FBeVN5JN-1" value="client_name" style="rounded=0;whiteSpace=wrap;html=1;" parent="1" vertex="1">
          <mxGeometry x="152.5" y="200" width="140" height="60" as="geometry" />
        </mxCell>
        <mxCell id="vSFISmRLjkH2FBeVN5JN-4" value="nfo_meliClientTable" style="text;html=1;strokeColor=#FF8000;fillColor=none;align=center;verticalAlign=middle;whiteSpace=wrap;rounded=0;" parent="1" vertex="1">
          <mxGeometry x="50" y="63" width="115" height="40" as="geometry" />
        </mxCell>
        <mxCell id="vSFISmRLjkH2FBeVN5JN-43" style="edgeStyle=orthogonalEdgeStyle;rounded=0;orthogonalLoop=1;jettySize=auto;html=1;strokeColor=#0800FF;" parent="1" source="vSFISmRLjkH2FBeVN5JN-5" target="vSFISmRLjkH2FBeVN5JN-18" edge="1">
          <mxGeometry relative="1" as="geometry">
            <Array as="points">
              <mxPoint x="320" y="310" />
              <mxPoint x="320" y="260" />
              <mxPoint x="445" y="260" />
            </Array>
          </mxGeometry>
        </mxCell>
        <mxCell id="vSFISmRLjkH2FBeVN5JN-5" value="client_secret" style="rounded=0;whiteSpace=wrap;html=1;" parent="1" vertex="1">
          <mxGeometry x="152.5" y="280" width="140" height="60" as="geometry" />
        </mxCell>
        <mxCell id="vSFISmRLjkH2FBeVN5JN-21" style="edgeStyle=orthogonalEdgeStyle;rounded=0;orthogonalLoop=1;jettySize=auto;html=1;entryX=0.5;entryY=0;entryDx=0;entryDy=0;strokeColor=#0800FF;" parent="1" source="vSFISmRLjkH2FBeVN5JN-6" target="vSFISmRLjkH2FBeVN5JN-18" edge="1">
          <mxGeometry relative="1" as="geometry">
            <Array as="points">
              <mxPoint x="320" y="150" />
              <mxPoint x="320" y="260" />
              <mxPoint x="445" y="260" />
            </Array>
          </mxGeometry>
        </mxCell>
        <mxCell id="vSFISmRLjkH2FBeVN5JN-6" value="client_id" style="rounded=0;whiteSpace=wrap;html=1;" parent="1" vertex="1">
          <mxGeometry x="152.5" y="120" width="140" height="60" as="geometry" />
        </mxCell>
        <mxCell id="vSFISmRLjkH2FBeVN5JN-10" value="" style="rounded=0;whiteSpace=wrap;html=1;" parent="1" vertex="1">
          <mxGeometry x="680" y="60" width="300" height="380" as="geometry" />
        </mxCell>
        <mxCell id="vSFISmRLjkH2FBeVN5JN-7" value="refresh_token_payload" style="rounded=0;whiteSpace=wrap;html=1;" parent="1" vertex="1">
          <mxGeometry x="152.5" y="360" width="140" height="60" as="geometry" />
        </mxCell>
        <mxCell id="vSFISmRLjkH2FBeVN5JN-8" value="nfo_meliTokenTable" style="text;html=1;strokeColor=#FF8000;fillColor=none;align=center;verticalAlign=middle;whiteSpace=wrap;rounded=0;" parent="1" vertex="1">
          <mxGeometry x="696" y="70" width="115" height="40" as="geometry" />
        </mxCell>
        <mxCell id="vSFISmRLjkH2FBeVN5JN-11" value="refresh_id" style="rounded=0;whiteSpace=wrap;html=1;" parent="1" vertex="1">
          <mxGeometry x="696" y="210" width="140" height="60" as="geometry" />
        </mxCell>
        <mxCell id="vSFISmRLjkH2FBeVN5JN-12" value="used_refresh_token" style="rounded=0;whiteSpace=wrap;html=1;" parent="1" vertex="1">
          <mxGeometry x="696" y="290" width="140" height="60" as="geometry" />
        </mxCell>
        <mxCell id="vSFISmRLjkH2FBeVN5JN-13" value="client_id" style="rounded=0;whiteSpace=wrap;html=1;" parent="1" vertex="1">
          <mxGeometry x="696" y="130" width="140" height="60" as="geometry" />
        </mxCell>
        <mxCell id="vSFISmRLjkH2FBeVN5JN-34" style="edgeStyle=orthogonalEdgeStyle;rounded=0;orthogonalLoop=1;jettySize=auto;html=1;entryX=1;entryY=0.75;entryDx=0;entryDy=0;strokeColor=#1100FF;" parent="1" source="vSFISmRLjkH2FBeVN5JN-14" target="vSFISmRLjkH2FBeVN5JN-18" edge="1">
          <mxGeometry relative="1" as="geometry">
            <Array as="points">
              <mxPoint x="570" y="400" />
              <mxPoint x="570" y="323" />
            </Array>
          </mxGeometry>
        </mxCell>
        <mxCell id="vSFISmRLjkH2FBeVN5JN-14" value="new_refresh_token" style="rounded=0;whiteSpace=wrap;html=1;" parent="1" vertex="1">
          <mxGeometry x="696" y="370" width="140" height="60" as="geometry" />
        </mxCell>
        <mxCell id="vSFISmRLjkH2FBeVN5JN-17" value="Token update/get access token" style="text;html=1;strokeColor=none;fillColor=none;align=center;verticalAlign=middle;whiteSpace=wrap;rounded=0;" parent="1" vertex="1">
          <mxGeometry x="370" y="56" width="220" height="40" as="geometry" />
        </mxCell>
        <mxCell id="vSFISmRLjkH2FBeVN5JN-23" style="edgeStyle=orthogonalEdgeStyle;rounded=0;orthogonalLoop=1;jettySize=auto;html=1;strokeColor=#FF0516;" parent="1" source="70crL620yWNtble76ojK-1" target="vSFISmRLjkH2FBeVN5JN-24" edge="1">
          <mxGeometry relative="1" as="geometry">
            <mxPoint x="395" y="570" as="targetPoint" />
          </mxGeometry>
        </mxCell>
        <mxCell id="vSFISmRLjkH2FBeVN5JN-32" style="edgeStyle=orthogonalEdgeStyle;rounded=0;orthogonalLoop=1;jettySize=auto;html=1;entryX=0;entryY=0.5;entryDx=0;entryDy=0;exitX=1;exitY=0.25;exitDx=0;exitDy=0;strokeColor=#FF0011;" parent="1" source="vSFISmRLjkH2FBeVN5JN-18" target="vSFISmRLjkH2FBeVN5JN-12" edge="1">
          <mxGeometry relative="1" as="geometry" />
        </mxCell>
        <mxCell id="vSFISmRLjkH2FBeVN5JN-73" style="edgeStyle=orthogonalEdgeStyle;rounded=0;orthogonalLoop=1;jettySize=auto;html=1;exitX=0.5;exitY=1;exitDx=0;exitDy=0;" parent="1" source="vSFISmRLjkH2FBeVN5JN-18" target="vSFISmRLjkH2FBeVN5JN-27" edge="1">
          <mxGeometry relative="1" as="geometry" />
        </mxCell>
        <mxCell id="vSFISmRLjkH2FBeVN5JN-18" value="read client tables, get active clients and refresh_token_last_used" style="text;html=1;strokeColor=none;fillColor=none;align=center;verticalAlign=middle;whiteSpace=wrap;rounded=0;" parent="1" vertex="1">
          <mxGeometry x="360" y="270" width="170" height="70" as="geometry" />
        </mxCell>
        <mxCell id="vSFISmRLjkH2FBeVN5JN-53" style="edgeStyle=orthogonalEdgeStyle;rounded=0;orthogonalLoop=1;jettySize=auto;html=1;entryX=0;entryY=0.5;entryDx=0;entryDy=0;strokeColor=#FF0000;" parent="1" source="vSFISmRLjkH2FBeVN5JN-24" target="vSFISmRLjkH2FBeVN5JN-54" edge="1">
          <mxGeometry relative="1" as="geometry">
            <mxPoint x="630" y="690" as="targetPoint" />
            <Array as="points" />
          </mxGeometry>
        </mxCell>
        <mxCell id="vSFISmRLjkH2FBeVN5JN-24" value="access_token" style="rounded=0;whiteSpace=wrap;html=1;strokeColor=#FF0000;" parent="1" vertex="1">
          <mxGeometry x="385" y="610" width="120" height="60" as="geometry" />
        </mxCell>
        <mxCell id="vSFISmRLjkH2FBeVN5JN-30" style="edgeStyle=orthogonalEdgeStyle;rounded=0;orthogonalLoop=1;jettySize=auto;html=1;entryX=0;entryY=0.5;entryDx=0;entryDy=0;strokeColor=#FF0516;" parent="1" source="vSFISmRLjkH2FBeVN5JN-27" target="vSFISmRLjkH2FBeVN5JN-13" edge="1">
          <mxGeometry relative="1" as="geometry">
            <Array as="points">
              <mxPoint x="445" y="410" />
              <mxPoint x="600" y="410" />
              <mxPoint x="600" y="160" />
            </Array>
          </mxGeometry>
        </mxCell>
        <mxCell id="vSFISmRLjkH2FBeVN5JN-31" style="edgeStyle=orthogonalEdgeStyle;rounded=0;orthogonalLoop=1;jettySize=auto;html=1;strokeColor=#FF0516;" parent="1" source="vSFISmRLjkH2FBeVN5JN-27" target="vSFISmRLjkH2FBeVN5JN-14" edge="1">
          <mxGeometry relative="1" as="geometry">
            <mxPoint x="670" y="420" as="targetPoint" />
            <Array as="points">
              <mxPoint x="445" y="410" />
            </Array>
          </mxGeometry>
        </mxCell>
        <mxCell id="vSFISmRLjkH2FBeVN5JN-27" value="get data from meli" style="text;html=1;strokeColor=none;fillColor=none;align=center;verticalAlign=middle;whiteSpace=wrap;rounded=0;" parent="1" vertex="1">
          <mxGeometry x="385" y="370" width="120" height="25" as="geometry" />
        </mxCell>
        <mxCell id="vSFISmRLjkH2FBeVN5JN-35" value="write&lt;br&gt;newline" style="text;html=1;strokeColor=#FF0000;fillColor=none;align=center;verticalAlign=middle;whiteSpace=wrap;rounded=0;" parent="1" vertex="1">
          <mxGeometry x="520" y="425" width="60" height="30" as="geometry" />
        </mxCell>
        <mxCell id="vSFISmRLjkH2FBeVN5JN-36" value="read&lt;br&gt;lastline" style="text;html=1;strokeColor=#1808FF;fillColor=none;align=center;verticalAlign=middle;whiteSpace=wrap;rounded=0;" parent="1" vertex="1">
          <mxGeometry x="585" y="425" width="60" height="30" as="geometry" />
        </mxCell>
        <mxCell id="vSFISmRLjkH2FBeVN5JN-38" value="P-key&lt;br&gt;meli client id" style="text;html=1;strokeColor=none;fillColor=none;align=center;verticalAlign=middle;whiteSpace=wrap;rounded=0;" parent="1" vertex="1">
          <mxGeometry x="50" y="130" width="92.5" height="40" as="geometry" />
        </mxCell>
        <mxCell id="vSFISmRLjkH2FBeVN5JN-39" value="given name" style="text;html=1;strokeColor=#03FF1C;fillColor=none;align=center;verticalAlign=middle;whiteSpace=wrap;rounded=0;" parent="1" vertex="1">
          <mxGeometry x="47.5" y="210" width="92.5" height="40" as="geometry" />
        </mxCell>
        <mxCell id="vSFISmRLjkH2FBeVN5JN-40" value="meli client secret" style="text;html=1;strokeColor=none;fillColor=none;align=center;verticalAlign=middle;whiteSpace=wrap;rounded=0;" parent="1" vertex="1">
          <mxGeometry x="50" y="290" width="92.5" height="40" as="geometry" />
        </mxCell>
        <mxCell id="vSFISmRLjkH2FBeVN5JN-41" value="meli first token payload (or after expiry)" style="text;html=1;strokeColor=none;fillColor=none;align=center;verticalAlign=middle;whiteSpace=wrap;rounded=0;" parent="1" vertex="1">
          <mxGeometry x="50" y="365" width="92.5" height="50" as="geometry" />
        </mxCell>
        <mxCell id="vSFISmRLjkH2FBeVN5JN-44" value="expected_refresh&lt;br&gt;token_validity" style="rounded=0;whiteSpace=wrap;html=1;" parent="1" vertex="1">
          <mxGeometry x="152.5" y="440" width="140" height="60" as="geometry" />
        </mxCell>
        <mxCell id="vSFISmRLjkH2FBeVN5JN-45" value="to ask for a new token and trigger to use token payload" style="text;html=1;strokeColor=#03FF1C;fillColor=none;align=center;verticalAlign=middle;whiteSpace=wrap;rounded=0;" parent="1" vertex="1">
          <mxGeometry x="47.5" y="440" width="92.5" height="55" as="geometry" />
        </mxCell>
        <mxCell id="vSFISmRLjkH2FBeVN5JN-46" value="insert_date" style="rounded=0;whiteSpace=wrap;html=1;" parent="1" vertex="1">
          <mxGeometry x="152.5" y="520" width="140" height="60" as="geometry" />
        </mxCell>
        <mxCell id="vSFISmRLjkH2FBeVN5JN-47" value="first time client registry" style="text;html=1;strokeColor=#00FF22;fillColor=none;align=center;verticalAlign=middle;whiteSpace=wrap;rounded=0;" parent="1" vertex="1">
          <mxGeometry x="47.5" y="530" width="92.5" height="40" as="geometry" />
        </mxCell>
        <mxCell id="vSFISmRLjkH2FBeVN5JN-48" value="Altered_date" style="rounded=0;whiteSpace=wrap;html=1;" parent="1" vertex="1">
          <mxGeometry x="152.5" y="600" width="140" height="60" as="geometry" />
        </mxCell>
        <mxCell id="vSFISmRLjkH2FBeVN5JN-49" value="Track alterations on table" style="text;html=1;strokeColor=#03FF1C;fillColor=none;align=center;verticalAlign=middle;whiteSpace=wrap;rounded=0;" parent="1" vertex="1">
          <mxGeometry x="47.5" y="610" width="92.5" height="40" as="geometry" />
        </mxCell>
        <mxCell id="vSFISmRLjkH2FBeVN5JN-50" value="optional" style="text;html=1;strokeColor=#00FF22;fillColor=none;align=center;verticalAlign=middle;whiteSpace=wrap;rounded=0;" parent="1" vertex="1">
          <mxGeometry x="585" y="465" width="60" height="30" as="geometry" />
        </mxCell>
        <mxCell id="vSFISmRLjkH2FBeVN5JN-51" value="F-key - ClientTable&lt;br&gt;meli client id" style="text;html=1;strokeColor=none;fillColor=none;align=center;verticalAlign=middle;whiteSpace=wrap;rounded=0;" parent="1" vertex="1">
          <mxGeometry x="850" y="140" width="110" height="40" as="geometry" />
        </mxCell>
        <mxCell id="vSFISmRLjkH2FBeVN5JN-52" value="Identity&lt;br&gt;to track last" style="text;html=1;strokeColor=none;fillColor=none;align=center;verticalAlign=middle;whiteSpace=wrap;rounded=0;" parent="1" vertex="1">
          <mxGeometry x="850" y="220" width="110" height="40" as="geometry" />
        </mxCell>
        <mxCell id="vSFISmRLjkH2FBeVN5JN-58" value="" style="rounded=0;whiteSpace=wrap;html=1;" parent="1" vertex="1">
          <mxGeometry x="680" y="500" width="300" height="190" as="geometry" />
        </mxCell>
        <mxCell id="vSFISmRLjkH2FBeVN5JN-59" style="edgeStyle=orthogonalEdgeStyle;rounded=0;orthogonalLoop=1;jettySize=auto;html=1;strokeColor=#FF0000;" parent="1" source="vSFISmRLjkH2FBeVN5JN-54" target="vSFISmRLjkH2FBeVN5JN-56" edge="1">
          <mxGeometry relative="1" as="geometry" />
        </mxCell>
        <mxCell id="vSFISmRLjkH2FBeVN5JN-54" value="MELI - endpoints" style="rounded=0;whiteSpace=wrap;html=1;strokeColor=#FF0000;" parent="1" vertex="1">
          <mxGeometry x="540" y="610" width="120" height="60" as="geometry" />
        </mxCell>
        <mxCell id="vSFISmRLjkH2FBeVN5JN-56" value="temp_meli&lt;br&gt;results_tables" style="rounded=0;whiteSpace=wrap;html=1;strokeColor=#FF8000;" parent="1" vertex="1">
          <mxGeometry x="706" y="610" width="120" height="60" as="geometry" />
        </mxCell>
        <mxCell id="vSFISmRLjkH2FBeVN5JN-63" value="" style="shape=image;verticalLabelPosition=bottom;labelBackgroundColor=default;verticalAlign=top;aspect=fixed;imageAspect=0;image=https://upload.wikimedia.org/wikipedia/commons/thumb/a/a8/Microsoft_Azure_Logo.svg/2560px-Microsoft_Azure_Logo.svg.png;" parent="1" vertex="1">
          <mxGeometry x="880" y="70" width="90.17" height="26" as="geometry" />
        </mxCell>
        <mxCell id="vSFISmRLjkH2FBeVN5JN-65" value="" style="shape=image;verticalLabelPosition=bottom;labelBackgroundColor=default;verticalAlign=top;aspect=fixed;imageAspect=0;image=https://upload.wikimedia.org/wikipedia/commons/thumb/a/a8/Microsoft_Azure_Logo.svg/2560px-Microsoft_Azure_Logo.svg.png;" parent="1" vertex="1">
          <mxGeometry x="880" y="510" width="90.17" height="26" as="geometry" />
        </mxCell>
        <mxCell id="vSFISmRLjkH2FBeVN5JN-66" value="" style="shape=image;verticalLabelPosition=bottom;labelBackgroundColor=default;verticalAlign=top;aspect=fixed;imageAspect=0;image=https://upload.wikimedia.org/wikipedia/commons/thumb/a/a8/Microsoft_Azure_Logo.svg/2560px-Microsoft_Azure_Logo.svg.png;" parent="1" vertex="1">
          <mxGeometry x="213.83000000000007" y="60" width="90.17" height="26" as="geometry" />
        </mxCell>
        <mxCell id="vSFISmRLjkH2FBeVN5JN-67" style="edgeStyle=orthogonalEdgeStyle;rounded=0;orthogonalLoop=1;jettySize=auto;html=1;exitX=0.5;exitY=1;exitDx=0;exitDy=0;" parent="1" source="vSFISmRLjkH2FBeVN5JN-65" target="vSFISmRLjkH2FBeVN5JN-65" edge="1">
          <mxGeometry relative="1" as="geometry" />
        </mxCell>
        <mxCell id="vSFISmRLjkH2FBeVN5JN-69" value="" style="shape=image;verticalLabelPosition=bottom;labelBackgroundColor=default;verticalAlign=top;aspect=fixed;imageAspect=0;image=https://cdn.worldvectorlogo.com/logos/python-3.svg;" parent="1" vertex="1">
          <mxGeometry x="340" y="182.3" width="95.52" height="27.7" as="geometry" />
        </mxCell>
        <mxCell id="vSFISmRLjkH2FBeVN5JN-71" value="" style="shape=image;verticalLabelPosition=bottom;labelBackgroundColor=default;verticalAlign=top;aspect=fixed;imageAspect=0;image=https://raw.githubusercontent.com/pola-rs/polars-static/master/logos/polars_github_logo_rect_dark_name.svg;" parent="1" vertex="1">
          <mxGeometry x="524" y="182.3" width="129.97" height="30" as="geometry" />
        </mxCell>
        <mxCell id="vSFISmRLjkH2FBeVN5JN-74" value="" style="shape=image;verticalLabelPosition=bottom;labelBackgroundColor=default;verticalAlign=top;aspect=fixed;imageAspect=0;image=https://upload.wikimedia.org/wikipedia/commons/thumb/e/ed/Pandas_logo.svg/1280px-Pandas_logo.svg.png;" parent="1" vertex="1">
          <mxGeometry x="545.6899999999999" y="215" width="86.6" height="35" as="geometry" />
        </mxCell>
        <mxCell id="vSFISmRLjkH2FBeVN5JN-76" value="meli&lt;br&gt;results_tables" style="rounded=0;whiteSpace=wrap;html=1;strokeColor=#FF8000;" parent="1" vertex="1">
          <mxGeometry x="707" y="520" width="120" height="60" as="geometry" />
        </mxCell>
        <mxCell id="vSFISmRLjkH2FBeVN5JN-77" style="edgeStyle=orthogonalEdgeStyle;rounded=0;orthogonalLoop=1;jettySize=auto;html=1;entryX=0.5;entryY=1;entryDx=0;entryDy=0;" parent="1" target="vSFISmRLjkH2FBeVN5JN-76" edge="1">
          <mxGeometry relative="1" as="geometry">
            <mxPoint x="767" y="610" as="sourcePoint" />
            <mxPoint x="716" y="650" as="targetPoint" />
          </mxGeometry>
        </mxCell>
        <mxCell id="70crL620yWNtble76ojK-3" value="" style="edgeStyle=orthogonalEdgeStyle;rounded=0;orthogonalLoop=1;jettySize=auto;html=1;strokeColor=#FF0516;" edge="1" parent="1" source="vSFISmRLjkH2FBeVN5JN-27" target="70crL620yWNtble76ojK-1">
          <mxGeometry relative="1" as="geometry">
            <mxPoint x="445" y="610" as="targetPoint" />
            <mxPoint x="445" y="395" as="sourcePoint" />
          </mxGeometry>
        </mxCell>
        <mxCell id="70crL620yWNtble76ojK-6" style="edgeStyle=orthogonalEdgeStyle;rounded=0;orthogonalLoop=1;jettySize=auto;html=1;exitX=1;exitY=0.5;exitDx=0;exitDy=0;entryX=0;entryY=0.5;entryDx=0;entryDy=0;" edge="1" parent="1" source="70crL620yWNtble76ojK-1" target="70crL620yWNtble76ojK-7">
          <mxGeometry relative="1" as="geometry">
            <mxPoint x="520" y="550" as="targetPoint" />
          </mxGeometry>
        </mxCell>
        <mxCell id="70crL620yWNtble76ojK-1" value="" style="rhombus;whiteSpace=wrap;html=1;strokeColor=#FF0000;" vertex="1" parent="1">
          <mxGeometry x="405" y="510" width="80" height="80" as="geometry" />
        </mxCell>
        <mxCell id="70crL620yWNtble76ojK-4" value="on success" style="text;html=1;strokeColor=none;fillColor=none;align=center;verticalAlign=middle;whiteSpace=wrap;rounded=0;" vertex="1" parent="1">
          <mxGeometry x="360" y="580" width="65" height="25" as="geometry" />
        </mxCell>
        <mxCell id="70crL620yWNtble76ojK-5" value="on error" style="text;html=1;strokeColor=none;fillColor=none;align=center;verticalAlign=middle;whiteSpace=wrap;rounded=0;" vertex="1" parent="1">
          <mxGeometry x="490" y="555" width="50" height="25" as="geometry" />
        </mxCell>
        <mxCell id="70crL620yWNtble76ojK-7" value="Try refresh_token&lt;br&gt;payload" style="ellipse;whiteSpace=wrap;html=1;aspect=fixed;" vertex="1" parent="1">
          <mxGeometry x="545.69" y="510" width="80" height="80" as="geometry" />
        </mxCell>
      </root>
    </mxGraphModel>
  </diagram>
</mxfile>
